<?xml version="1.0" encoding="utf-8"?>
<!-- Generator: Adobe Illustrator 25.0.0, SVG Export Plug-In . SVG Version: 6.00 Build 0)  -->
<svg version="1.1" id="圖層_1" xmlns="http://www.w3.org/2000/svg" xmlns:xlink="http://www.w3.org/1999/xlink" x="0px" y="0px"
	 viewBox="0 0 366 62" style="enable-background:new 0 0 366 62;" xml:space="preserve">
<g>
	<path d="M25.1,2.3L1,59.7h13.6l4.6-11.8h19.5l4.6,11.8h14L32.7,2.3H25.1z M34.6,37.3H23.3L29,22.8L34.6,37.3z"/>
	<path d="M78.2,14.4c2.3-1.5,4.9-2.3,7.8-2.3c2.8,0,5.4,0.8,7.8,2.3c2.4,1.5,4.5,3.8,6.3,6.8l0.3,0.5l8.6-6.3l-0.2-0.4
		c-2.3-4.5-5.5-8.1-9.3-10.5C95.5,2.1,91,0.9,86,0.9c-5.5,0-10.4,1.3-14.6,3.7c-4.2,2.5-7.5,6-9.9,10.6c-2.3,4.5-3.6,9.8-3.6,15.8
		c0.1,6,1.3,11.3,3.6,15.8c2.4,4.5,5.7,8.1,9.9,10.6c4.2,2.5,9.1,3.7,14.6,3.7c5,0,9.5-1.2,13.4-3.6c3.9-2.4,7-5.9,9.3-10.4l0.2-0.4
		l-8.6-6.3l-0.3,0.5c-1.8,2.9-3.9,5.2-6.3,6.7c-2.4,1.5-5,2.3-7.7,2.3c-2.9,0-5.6-0.8-7.8-2.3C75.8,46,74,43.8,72.7,41
		c-1.3-2.9-2-6.2-2.1-10c0.1-3.7,0.8-7.1,2.1-10C74,18.2,75.9,16,78.2,14.4z"/>
	<polygon points="113.8,13.4 128.5,13.4 128.5,59.7 141.3,59.7 141.3,13.4 156,13.4 156,2.3 113.8,2.3 	"/>
	<rect x="162.6" y="2.3" width="12.8" height="57.4"/>
	<polygon points="210.3,38.3 196.3,2.3 181.5,2.3 206.6,59.4 206.8,59.7 213.5,59.7 239.2,2.3 224.3,2.3 	"/>
	<rect x="245.2" y="2.3" width="12.8" height="57.4"/>
	<polygon points="264.7,13.4 279.4,13.4 279.4,59.7 292.2,59.7 292.2,13.4 306.9,13.4 306.9,2.3 264.7,2.3 	"/>
	<polygon points="349.6,2.3 337.6,25.3 325.6,2.3 310.2,2.3 331.3,37.5 331.3,59.7 344,59.7 344,37.2 365,2.3 	"/>
</g>
</svg>
