<?xml version="1.0" encoding="utf-8"?>
<!-- Generator: Adobe Illustrator 22.1.0, SVG Export Plug-In . SVG Version: 6.00 Build 0)  -->
<svg version="1.1" id="圖層_1" xmlns="http://www.w3.org/2000/svg" xmlns:xlink="http://www.w3.org/1999/xlink" x="0px" y="0px"
	 viewBox="0 0 453.4 60.3" style="enable-background:new 0 0 453.4 60.3;" xml:space="preserve">
<title>act</title>
<g>
	<polygon points="36.6,12.6 36.6,1.5 0,1.4 0,58.8 37.6,58.8 37.6,47.7 12.8,47.7 12.8,35.3 34.2,35.3 34.2,24.3 12.8,24.3 
		12.8,12.6 	"/>
	<polygon points="59.4,58.8 75.2,37 91,58.8 106.9,58.8 83.7,27.9 104.5,1.4 88.4,1.4 75.2,19.9 61.8,1.4 46,1.4 66.7,28.1 
		43.5,58.8 	"/>
	<polygon points="146.6,23.3 126.8,23.3 126.8,1.4 114,1.4 114,58.8 126.8,58.8 126.8,34.4 146.6,34.4 146.6,58.8 159.4,58.8 
		159.4,1.5 146.6,1.5 	"/>
	<rect x="169.3" y="1.4" width="12.8" height="57.4"/>
	<path d="M226.2,56.6c2.5-1.4,4.6-3.5,6.1-5.9c1.4-2.3,2.2-5,2.2-7.7c0-2.3-0.5-4.6-1.4-6.7c-0.9-2.1-2.3-4-3.9-5.5l0,0
		c-1.4-1.3-3.1-2.4-5-3c1.9-1,3.4-2.5,4.4-4.4c1.4-2.4,2.1-5.1,2-7.9c0-2.5-0.8-5-2.3-7c-1.6-2.2-3.8-3.9-6.3-5.1
		c-2.7-1.3-5.6-1.9-8.6-1.9h-21.3v57.3h25.3C220.5,58.8,223.5,58.1,226.2,56.6z M217.3,21.5c-0.7,0.9-1.7,1.7-2.8,2.1
		c-1.4,0.5-2.9,0.8-4.3,0.8h-5.3V12.5h6c1.9-0.1,3.9,0.5,5.4,1.7c1.3,1,2.1,2.6,2,4.3C218.3,19.6,218,20.6,217.3,21.5L217.3,21.5z
		 M210.9,35.1c3.9,0,6.8,0.5,8.5,1.5c1.7,1,2.6,2.8,2.5,4.7c0.2,1.8-0.7,3.6-2.1,4.7c-1.4,1-3.9,1.5-7.1,1.6h-7.7V35.1H210.9z"/>
	<rect x="242.9" y="1.4" width="12.8" height="57.4"/>
	<polygon points="291.4,58.8 291.4,12.6 307,12.6 307,1.5 262.9,1.5 262.9,12.6 278.6,12.6 278.5,58.8 	"/>
	<rect x="314.3" y="1.4" width="12.8" height="57.4"/>
	<path d="M394.3,30.1c0.1-5.5-1.2-10.9-3.7-15.7c-2.4-4.4-6-8.1-10.4-10.6c-9.6-5-21.1-5-30.8,0c-4.4,2.5-8,6.1-10.4,10.6
		c-2.5,4.9-3.8,10.3-3.7,15.7c-0.1,5.5,1.2,10.9,3.7,15.8c2.4,4.5,6,8.2,10.4,10.6c9.6,5,21.1,5,30.8,0c4.4-2.5,8-6.2,10.4-10.6
		C393.1,41,394.4,35.6,394.3,30.1z M373.6,46.8c-2.6,1.6-5.6,2.4-8.7,2.4c-3.1,0.1-6.1-0.8-8.7-2.4c-2.5-1.6-4.6-4-5.9-6.7
		c-1.4-3.2-2.2-6.6-2.1-10.1c-0.1-3.4,0.6-6.9,2.1-10c1.3-2.7,3.3-5,5.9-6.6c2.6-1.6,5.7-2.4,8.7-2.3c6.2-0.2,11.9,3.4,14.5,9
		c1.4,3.1,2.2,6.6,2.1,10c0.1,3.4-0.7,6.9-2.1,10C378.1,42.9,376.1,45.2,373.6,46.8z"/>
	<polygon points="440.6,37.9 415.2,1.4 402.7,1.4 402.6,58.8 415.4,58.8 415.4,22.2 440.9,58.8 453.4,58.8 453.4,1.4 440.6,1.4 	"/>
</g>
</svg>
