<?xml version="1.0" encoding="utf-8"?>
<!-- Generator: Adobe Illustrator 25.0.0, SVG Export Plug-In . SVG Version: 6.00 Build 0)  -->
<svg version="1.1" id="圖層_1" xmlns="http://www.w3.org/2000/svg" xmlns:xlink="http://www.w3.org/1999/xlink" x="0px" y="0px"
	 viewBox="0 0 375 62" style="enable-background:new 0 0 375 62;" xml:space="preserve">
<g>
	<path d="M31.5,47.9c-2.1,1.2-4.5,1.7-6.9,1.6c-3.2-0.1-6.4-0.6-9.5-1.6C12,47,9.1,45.7,6.4,44l-0.5-0.3l-4.8,9.6l0.3,0.3
		c3,2.5,6.6,4.2,10.4,5.2c4.2,1.2,8.6,1.8,13.1,1.8c3.8,0.1,7.5-0.7,10.9-2.2c3-1.3,5.6-3.4,7.5-6C45,50,46,47.1,46,44.1
		c0.1-2.5-0.5-5-1.7-7.2c-1.4-2.3-3.2-4.2-5.5-5.6c-3.2-2-6.7-3.7-10.3-5c-2.3-0.8-4.5-1.8-6.6-2.9c-1.4-0.7-2.7-1.6-3.7-2.8
		c-0.8-0.9-1.2-2-1.2-3.2c-0.1-1.6,0.8-3.2,2.3-3.9c2.1-1.1,4.5-1.5,6.8-1.4c2.5,0,5,0.3,7.4,0.9c2.4,0.6,4.8,1.4,7,2.4l0.7,0.3v-11
		l-0.3-0.1c-2.7-1.1-5.5-2-8.3-2.6c-2.7-0.6-5.4-1-8.1-1c-3.9-0.2-7.4,0.4-10.7,1.7c-2.7,1.1-5.1,3-6.8,5.4
		c-1.6,2.5-2.4,5.4-2.4,8.4C4.5,20.8,6,24.9,9,28.1c2.8,3,7.1,5.5,12.8,7.6c3.1,1.1,5.4,2.1,7,2.8c1.4,0.6,2.6,1.4,3.7,2.5
		c1.7,1.7,1.8,4.5,0.1,6.2C32.2,47.5,31.9,47.8,31.5,47.9L31.5,47.9z"/>
	<path d="M78,61.1c7.8,0,13.9-2.3,18-6.8s6.3-11,6.3-19.5V2.2H89.6v33c0,4.7-1,8.3-3,10.7s-4.8,3.6-8.5,3.6s-6.5-1.2-8.5-3.6
		s-2.9-6.2-2.9-11V2.2H53.8v32.9c0,8.4,2.1,14.8,6.2,19.2S70.2,61.1,78,61.1z"/>
	<path d="M125.1,41.1h8.3c3.9,0.1,7.8-0.8,11.4-2.5c3.2-1.5,5.9-4,7.7-7c1.9-3.2,2.8-6.8,2.7-10.4c0.1-3.5-0.9-7-2.8-10
		c-1.9-2.9-4.6-5.2-7.7-6.7c-3.6-1.6-7.5-2.4-11.4-2.3h-21v57.4h12.8V41.1z M125.3,13.3h7.5c1.8,0,3.5,0.3,5.1,1.1
		c1.4,0.7,2.6,1.7,3.4,3c0.8,1.4,1.2,2.9,1.2,4.5c0,1.5-0.4,2.9-1.1,4.2c-0.8,1.3-1.9,2.3-3.3,2.9c-1.6,0.7-3.3,1.1-5,1.1h-7.7
		L125.3,13.3z"/>
	<path d="M176.4,41.1h8.3c3.9,0.1,7.8-0.8,11.4-2.5c3.2-1.5,5.9-4,7.7-7c1.9-3.2,2.8-6.8,2.7-10.4c0.1-3.5-0.9-7-2.8-10
		c-1.9-2.9-4.6-5.2-7.7-6.7c-3.6-1.6-7.5-2.4-11.4-2.3h-21v57.4h12.8V41.1z M176.6,13.3h7.5c1.8,0,3.5,0.3,5.1,1.1
		c1.4,0.7,2.6,1.7,3.4,3c0.8,1.4,1.2,2.9,1.2,4.5c0,1.5-0.4,2.9-1.1,4.2c-0.8,1.3-1.9,2.3-3.3,2.9c-1.6,0.7-3.3,1.1-5,1.1h-7.7
		L176.6,13.3z"/>
	<path d="M227.4,57.3c9.6,5,21.1,5,30.8,0c4.4-2.5,8-6.2,10.3-10.6c2.5-4.9,3.8-10.3,3.6-15.8c0.1-5.5-1.2-10.9-3.7-15.7
		c-2.4-4.5-6-8.1-10.3-10.6c-9.6-5-21.1-5-30.8,0c-4.4,2.5-8,6.1-10.4,10.6c-2.5,4.9-3.8,10.3-3.7,15.7c-0.1,5.5,1.2,10.9,3.7,15.8
		C219.3,51.1,222.9,54.8,227.4,57.3z M234,14.3c5.4-3.1,12-3.1,17.4,0c2.5,1.6,4.5,3.9,5.8,6.7c1.4,3.1,2.2,6.6,2.1,10
		c0.1,3.4-0.7,6.9-2.1,10c-2.6,5.7-8.3,9.2-14.5,9c-3.1,0.1-6.1-0.8-8.7-2.4c-2.5-1.6-4.6-3.9-5.8-6.6c-1.4-3.2-2.2-6.6-2.1-10.1
		c-0.1-3.4,0.6-6.9,2.1-10C229.5,18.2,231.5,15.9,234,14.3L234,14.3z"/>
	<path d="M293.3,39.6h8l11.9,20h15.2l-14.5-23c2.7-1.5,5-3.7,6.5-6.3c1.7-3,2.5-6.4,2.4-9.8c0.1-3.4-0.8-6.8-2.7-9.7
		c-1.9-2.8-4.5-5-7.6-6.3c-3.7-1.5-7.6-2.3-11.6-2.2h-20.5v57.4h12.8L293.3,39.6z M293.3,13.3h7.1c2.6-0.1,5.1,0.6,7.2,2.1
		c1.7,1.4,2.6,3.5,2.5,5.7c0.1,2.1-0.9,4.1-2.5,5.4c-2,1.4-4.5,2.1-7,2h-7.4L293.3,13.3z"/>
	<polygon points="345.4,59.6 358.2,59.6 358.3,13.4 373.9,13.4 373.9,2.3 329.7,2.3 329.7,13.4 345.5,13.4 	"/>
</g>
</svg>
