<?xml version="1.0" encoding="utf-8"?>
<!-- Generator: Adobe Illustrator 22.1.0, SVG Export Plug-In . SVG Version: 6.00 Build 0)  -->
<svg version="1.1" id="圖層_1" xmlns="http://www.w3.org/2000/svg" xmlns:xlink="http://www.w3.org/1999/xlink" x="0px" y="0px"
	 viewBox="0 0 837 60.3" style="enable-background:new 0 0 837 60.3;" xml:space="preserve">
<title>act</title>
<g>
	<path d="M30.4,47.1c-2.1,1.2-4.5,1.7-6.9,1.6c-3.2-0.1-6.4-0.6-9.5-1.6c-3.1-0.9-6-2.2-8.7-3.9l-0.5-0.3L0,52.5l0.3,0.3
		c3,2.5,6.6,4.2,10.4,5.2c4.2,1.2,8.6,1.8,13.1,1.8c3.8,0.1,7.5-0.7,10.9-2.2c3-1.3,5.6-3.4,7.5-6c1.7-2.4,2.7-5.3,2.7-8.3
		c0.1-2.5-0.5-5-1.7-7.2c-1.4-2.3-3.2-4.2-5.5-5.6c-3.2-2-6.7-3.7-10.3-5c-2.3-0.8-4.5-1.8-6.6-2.9c-1.4-0.7-2.7-1.6-3.7-2.8
		c-0.8-0.9-1.2-2-1.2-3.2c-0.1-1.6,0.8-3.2,2.3-3.9c2.1-1.1,4.5-1.5,6.8-1.4c2.5,0,5,0.3,7.4,0.9c2.4,0.6,4.8,1.4,7,2.4l0.7,0.3v-11
		l-0.3-0.1c-2.7-1.1-5.5-2-8.3-2.6c-2.7-0.6-5.4-1-8.1-1C19.5,0,16,0.6,12.7,1.9C10,3,7.6,4.9,5.9,7.3c-1.6,2.5-2.4,5.4-2.4,8.4
		C3.4,20,4.9,24.1,7.9,27.3c2.8,3,7.1,5.5,12.8,7.6c3.1,1.1,5.4,2.1,7,2.8c1.4,0.6,2.6,1.4,3.7,2.5c1.7,1.7,1.8,4.5,0.1,6.2
		C31.1,46.7,30.8,47,30.4,47.1L30.4,47.1z"/>
	<path d="M76.9,60.3c7.8,0,13.9-2.3,18-6.8s6.3-11,6.3-19.5V1.4H88.5v33c0,4.7-1,8.3-3,10.7s-4.8,3.6-8.5,3.6s-6.5-1.2-8.5-3.6
		s-2.9-6.2-2.9-11V1.4H52.7v32.9c0,8.4,2.1,14.8,6.2,19.2S69.1,60.3,76.9,60.3z"/>
	<path d="M124,40.3h8.3c3.9,0.1,7.8-0.8,11.4-2.5c3.2-1.5,5.9-4,7.7-7c1.9-3.2,2.8-6.8,2.7-10.4c0.1-3.5-0.9-7-2.8-10
		c-1.9-2.9-4.6-5.2-7.7-6.7c-3.6-1.6-7.5-2.4-11.4-2.3h-21v57.4H124L124,40.3z M124.2,12.5h7.5c1.8,0,3.5,0.3,5.1,1.1
		c1.4,0.7,2.6,1.7,3.4,3c0.8,1.4,1.2,2.9,1.2,4.5c0,1.5-0.4,2.9-1.1,4.2c-0.8,1.3-1.9,2.3-3.3,2.9c-1.6,0.7-3.3,1.1-5,1.1h-7.7
		L124.2,12.5z"/>
	<path d="M175.3,40.3h8.3c3.9,0.1,7.8-0.8,11.4-2.5c3.2-1.5,5.9-4,7.7-7c1.9-3.2,2.8-6.8,2.7-10.4c0.1-3.5-0.9-7-2.8-10
		c-1.9-2.9-4.6-5.2-7.7-6.7c-3.6-1.6-7.5-2.4-11.4-2.3h-21v57.4h12.8L175.3,40.3z M175.5,12.5h7.5c1.8,0,3.5,0.3,5.1,1.1
		c1.4,0.7,2.6,1.7,3.4,3c0.8,1.4,1.2,2.9,1.2,4.5c0,1.5-0.4,2.9-1.1,4.2c-0.8,1.3-1.9,2.3-3.3,2.9c-1.6,0.7-3.3,1.1-5,1.1h-7.7
		L175.5,12.5z"/>
	<path d="M226.3,56.5c9.6,5,21.1,5,30.8,0c4.4-2.5,8-6.2,10.3-10.6c2.5-4.9,3.8-10.3,3.6-15.8c0.1-5.5-1.2-10.9-3.7-15.7
		c-2.4-4.5-6-8.1-10.3-10.6c-9.6-5-21.1-5-30.8,0c-4.4,2.5-8,6.1-10.4,10.6c-2.5,4.9-3.8,10.3-3.7,15.7c-0.1,5.5,1.2,10.9,3.7,15.8
		C218.2,50.3,221.8,54,226.3,56.5z M232.9,13.5c5.4-3.1,12-3.1,17.4,0c2.5,1.6,4.5,3.9,5.8,6.7c1.4,3.1,2.2,6.6,2.1,10
		c0.1,3.4-0.7,6.9-2.1,10c-2.6,5.7-8.3,9.2-14.5,9c-3.1,0.1-6.1-0.8-8.7-2.4c-2.5-1.6-4.6-3.9-5.8-6.6c-1.4-3.2-2.2-6.6-2.1-10.1
		c-0.1-3.4,0.6-6.9,2.1-10C228.4,17.4,230.4,15.1,232.9,13.5L232.9,13.5z"/>
	<path d="M292.2,38.8h8l11.9,20h15.2l-14.5-23c2.7-1.5,5-3.7,6.5-6.3c1.7-3,2.5-6.4,2.4-9.8c0.1-3.4-0.8-6.8-2.7-9.7
		c-1.9-2.8-4.5-5-7.6-6.3c-3.7-1.5-7.6-2.3-11.6-2.2h-20.5v57.4h12.8L292.2,38.8z M292.2,12.5h7.1c2.6-0.1,5.1,0.6,7.2,2.1
		c1.7,1.4,2.6,3.5,2.5,5.7c0.1,2.1-0.9,4.1-2.5,5.4c-2,1.4-4.5,2.1-7,2h-7.4L292.2,12.5z"/>
	<polygon points="344.3,58.8 357.1,58.8 357.2,12.6 372.8,12.6 372.8,1.5 328.6,1.5 328.6,12.6 344.4,12.6 	"/>
	<path d="M417.6,47h20.5l5,11.8h14.1L430.9,1.4h-6.5l-25.3,56.7l-0.3,0.7h13.8L417.6,47z M422,36.5l5.8-13.7l5.8,13.7H422z"/>
	<path d="M510.5,46.4l0.2-0.4l-8-6.8l-0.3,0.5c-1.8,2.8-4.1,5.2-6.9,6.9c-2.5,1.5-5.4,2.3-8.3,2.3c-3,0.1-5.9-0.8-8.5-2.3
		c-2.5-1.6-4.5-3.9-5.8-6.6c-1.5-3.1-2.2-6.5-2.2-9.9c0-3.4,0.7-6.8,2.2-9.9c1.3-2.7,3.3-5,5.8-6.6c2.5-1.6,5.5-2.4,8.4-2.4
		c3,0,5.9,0.8,8.4,2.4c2.8,1.8,5.2,4.2,7,7l0.3,0.5l8-6.8l-0.2-0.4c-2.3-4.3-5.6-7.8-9.8-10.4c-4.1-2.4-8.9-3.6-13.6-3.5
		C481.9,0,476.6,1.3,472,3.8c-4.4,2.5-8,6.2-10.3,10.6c-2.5,4.8-3.9,10.2-3.9,15.7c0,5.5,1.3,10.9,3.8,15.7
		c2.4,4.4,5.9,8.1,10.3,10.6c4.6,2.6,9.8,3.9,15.1,3.8c4.8,0.1,9.5-1.1,13.7-3.5C504.9,54.2,508.2,50.6,510.5,46.4z"/>
	<polygon points="531.9,58.8 544.7,58.8 544.8,12.6 560.4,12.6 560.4,1.5 516.2,1.5 516.2,12.6 532,12.6 	"/>
	<rect x="567.6" y="1.4" width="12.8" height="57.4"/>
	<polygon points="617.2,37.9 617,37.9 601.8,1.4 586.9,1.4 613.7,58.8 620.2,58.8 647,2.2 647.3,1.4 632.4,1.4 	"/>
	<rect x="653.9" y="1.4" width="12.8" height="57.4"/>
	<polygon points="673.9,12.6 689.6,12.6 689.5,58.8 702.4,58.8 702.4,12.6 718,12.6 718,1.5 673.9,1.5 	"/>
	<rect x="725.2" y="1.4" width="12.8" height="57.4"/>
	<polygon points="760.8,35.3 782.2,35.3 782.2,24.3 760.8,24.3 760.8,12.6 784.6,12.6 784.6,1.5 748,1.4 748,58.8 785.5,58.8 
		785.5,47.7 760.8,47.7 	"/>
	<path d="M835.3,36c-1.4-2.3-3.2-4.2-5.5-5.6c-3.2-2-6.7-3.7-10.3-5c-2.3-0.9-4.5-1.8-6.6-2.9c-1.4-0.7-2.7-1.6-3.8-2.8
		c-0.8-0.9-1.2-2-1.2-3.2c-0.1-1.6,0.8-3.2,2.3-3.9c2.1-1,4.5-1.5,6.8-1.4c2.5,0,5,0.3,7.4,0.9c2.4,0.6,4.8,1.4,7,2.4l0.7,0.3v-11
		l-0.3-0.1c-2.7-1.1-5.5-2-8.3-2.6c-2.7-0.6-5.4-1-8.1-1c-3.5-0.1-7,0.6-10.3,1.9c-2.7,1.1-5.1,3-6.8,5.4c-1.6,2.5-2.4,5.4-2.4,8.4
		c-0.2,4.3,1.4,8.5,4.3,11.6c2.8,3,7.1,5.5,12.8,7.6c3.1,1.1,5.4,2.1,7,2.8c1.4,0.6,2.6,1.4,3.7,2.5c1.7,1.7,1.8,4.5,0.1,6.2
		c-0.3,0.3-0.7,0.6-1.1,0.8c-2.1,1.1-4.5,1.7-6.9,1.5c-3.2-0.1-6.4-0.6-9.5-1.6c-3.1-0.9-6-2.2-8.7-3.9L797,43l-4.8,9.6l0.3,0.3
		c3,2.5,6.6,4.2,10.4,5.2c4.2,1.2,8.6,1.8,13,1.8c3.8,0.1,7.5-0.7,10.9-2.2c3-1.3,5.5-3.4,7.5-6c1.7-2.4,2.7-5.3,2.7-8.3
		C837,40.8,836.5,38.3,835.3,36z"/>
</g>
</svg>
