<?xml version="1.0" encoding="utf-8"?>
<!-- Generator: Adobe Illustrator 22.1.0, SVG Export Plug-In . SVG Version: 6.00 Build 0)  -->
<svg version="1.1" id="圖層_1" xmlns="http://www.w3.org/2000/svg" xmlns:xlink="http://www.w3.org/1999/xlink" x="0px" y="0px"
	 viewBox="0 0 594.9 60.3" style="enable-background:new 0 0 594.9 60.3;" xml:space="preserve">
<title>act</title>
<g>
	<path d="M32.4,3.8C28.8,2.2,24.9,1.4,21,1.5H0v57.4h12.8V40.3H21c3.9,0.1,7.8-0.8,11.4-2.5c3.2-1.5,5.9-4,7.7-7
		c1.9-3.2,2.8-6.8,2.7-10.4c0.1-3.5-0.9-7-2.8-10C38.2,7.6,35.6,5.2,32.4,3.8z M20.6,29.3h-7.7V12.5h7.5c1.8,0,3.5,0.3,5.1,1.1
		c1.4,0.7,2.6,1.7,3.4,3c0.8,1.4,1.2,2.9,1.2,4.5c0,1.5-0.4,2.9-1.1,4.2c-0.8,1.3-1.9,2.3-3.3,2.9l0,0
		C24.1,28.9,22.4,29.3,20.6,29.3z"/>
	<path d="M108.5,30.1c0.1-5.5-1.2-10.9-3.7-15.7c-2.4-4.5-6-8.1-10.3-10.6c-4.7-2.6-10-3.9-15.3-3.8c-5.4-0.1-10.7,1.2-15.4,3.8
		c-4.4,2.5-8,6.1-10.4,10.6c-2.5,4.9-3.8,10.3-3.7,15.7c-0.1,5.5,1.2,10.9,3.7,15.8c2.4,4.5,6,8.2,10.4,10.6
		c4.7,2.6,10,3.9,15.4,3.8c5.4,0.1,10.7-1.2,15.4-3.8c4.4-2.5,8-6.2,10.3-10.6C107.4,41,108.7,35.6,108.5,30.1z M87.8,46.8
		c-5.4,3.1-12,3.1-17.4,0c-2.5-1.6-4.6-3.9-5.8-6.7c-1.4-3.2-2.2-6.6-2.1-10.1c-0.1-3.4,0.6-6.9,2.1-10c1.3-2.7,3.3-5,5.8-6.6
		c5.4-3.1,12-3.1,17.4,0c2.5,1.6,4.5,4,5.8,6.7c1.4,3.1,2.2,6.6,2.1,10c0.1,3.4-0.7,6.9-2.1,10C92.4,42.9,90.4,45.2,87.8,46.8z"/>
	<path d="M149.3,3.8c-3.6-1.6-7.5-2.4-11.4-2.3h-21v57.4h12.8V40.3h8.3c3.9,0.1,7.8-0.8,11.4-2.5c3.2-1.6,5.9-4,7.7-7
		c1.9-3.2,2.8-6.8,2.7-10.4c0.1-3.5-0.9-7-2.8-10C155.2,7.5,152.5,5.2,149.3,3.8z M137.6,29.3h-7.7V12.5h7.5c1.7,0,3.5,0.3,5.1,1.1
		c1.4,0.7,2.6,1.7,3.4,3c0.8,1.4,1.3,2.9,1.2,4.5c0,1.5-0.4,2.9-1.2,4.2c-0.8,1.3-1.9,2.3-3.3,2.9l0,0
		C141,28.9,139.3,29.3,137.6,29.3z"/>
	<rect x="168.2" y="29.8" width="28.3" height="11.1"/>
	<path d="M230.7,60.3c7.8,0,13.9-2.3,18-6.8c4.1-4.5,6.3-11,6.3-19.5V1.5h-12.8v33c0,4.7-1,8.3-3,10.7c-1.9,2.4-4.8,3.6-8.5,3.6
		c-3.7,0-6.6-1.2-8.5-3.7c-1.9-2.5-2.9-6.2-2.9-11V1.5h-12.8v32.9c0,8.4,2.1,14.8,6.2,19.2C216.8,58,222.9,60.3,230.7,60.3z"/>
	<path d="M305.1,30.9c1.9-3.2,2.8-6.8,2.7-10.4c0.1-3.5-0.9-7-2.8-10c-1.9-2.9-4.6-5.2-7.7-6.7c-3.6-1.6-7.5-2.4-11.4-2.3h-21.1
		v57.4h12.8V40.3h8.3c4,0.1,7.9-0.8,11.4-2.5C300.6,36.3,303.3,33.9,305.1,30.9z M285.6,29.3h-7.7V12.5h7.5c1.7,0,3.4,0.4,5,1.1
		c1.4,0.7,2.6,1.7,3.4,3c0.8,1.4,1.2,2.9,1.2,4.5c0,1.5-0.4,2.9-1.2,4.2c-0.8,1.3-1.9,2.3-3.3,2.9l0,0
		C289,28.9,287.3,29.3,285.6,29.3L285.6,29.3z"/>
	<path d="M375.1,30.4c-3.2-2-6.7-3.7-10.3-5c-2.3-0.8-4.5-1.8-6.6-2.9c-1.4-0.7-2.7-1.6-3.7-2.8c-0.8-0.9-1.2-2-1.2-3.2
		c-0.1-1.6,0.8-3.2,2.3-3.9c2.1-1,4.5-1.5,6.8-1.4c2.5,0,5,0.3,7.4,0.9c2.4,0.6,4.8,1.4,7,2.4l0.7,0.3v-11l-0.3-0.1
		c-2.7-1.1-5.5-2-8.3-2.6c-2.7-0.6-5.4-1-8.1-1c-3.5-0.1-7,0.6-10.3,1.9c-2.7,1.1-5.1,3-6.8,5.4c-1.6,2.5-2.4,5.4-2.4,8.4
		c-0.1,4.3,1.4,8.4,4.3,11.6c2.8,3,7.1,5.5,12.8,7.6c3.1,1.1,5.4,2.1,7,2.8c1.4,0.6,2.6,1.4,3.7,2.5c1.7,1.7,1.8,4.5,0.1,6.2
		c-0.3,0.3-0.7,0.6-1.1,0.8c-2.1,1.1-4.5,1.7-6.9,1.5c-3.2-0.1-6.4-0.6-9.5-1.6c-3.1-0.9-6-2.2-8.7-3.9l-0.5-0.3l-4.9,9.6l0.3,0.3
		c3,2.5,6.6,4.2,10.4,5.2c4.2,1.2,8.6,1.8,13,1.8c3.8,0.1,7.5-0.7,10.9-2.2c3-1.3,5.6-3.4,7.5-6c1.7-2.4,2.7-5.3,2.7-8.3
		c0.1-2.5-0.5-5-1.7-7.2C379.3,33.7,377.4,31.8,375.1,30.4z"/>
	<polygon points="387.6,12.6 403.3,12.6 403.2,58.8 416.1,58.8 416.1,12.6 431.7,12.6 431.7,1.5 387.6,1.5 	"/>
	<path d="M479.9,3.8c-9.6-5-21.1-5-30.8,0c-4.4,2.5-8,6.1-10.4,10.6c-2.5,4.9-3.8,10.3-3.7,15.7c-0.1,5.5,1.2,10.9,3.7,15.8
		c2.4,4.5,6,8.2,10.4,10.6c9.6,5,21.1,5,30.8,0c4.4-2.5,8-6.2,10.4-10.6c2.5-4.9,3.8-10.3,3.7-15.8c0.1-5.5-1.2-10.9-3.7-15.7
		C487.9,9.9,484.3,6.2,479.9,3.8z M473.2,46.8c-5.4,3.1-12,3.1-17.4,0c-2.5-1.6-4.6-3.9-5.8-6.7c-1.4-3.2-2.2-6.6-2.1-10.1
		c-0.1-3.4,0.6-6.9,2.1-10c1.3-2.7,3.3-5,5.9-6.6c5.4-3.1,12-3.1,17.4,0c2.5,1.6,4.6,4,5.8,6.7c1.4,3.1,2.2,6.6,2.1,10
		c0.1,3.4-0.7,6.9-2.1,10C477.8,42.9,475.7,45.2,473.2,46.8z"/>
	<path d="M542.2,29.5c1.7-3,2.5-6.4,2.4-9.8c0.1-3.4-0.8-6.8-2.7-9.7c-1.8-2.8-4.5-5-7.6-6.3c-3.7-1.5-7.6-2.3-11.6-2.2h-20.5v57.4
		h12.8v-20h8l11.9,20h15.2l-14.5-23C538.4,34.4,540.6,32.2,542.2,29.5z M515.1,12.5h7.1c2.5-0.1,5.1,0.6,7.1,2.1
		c1.7,1.4,2.6,3.5,2.5,5.7c0.1,2.1-0.8,4.1-2.5,5.4c-2,1.4-4.5,2.1-7,2H515L515.1,12.5z"/>
	<polygon points="570.1,35.3 591.5,35.3 591.5,24.3 570.1,24.3 570.1,12.6 594,12.6 594,1.5 557.3,1.5 557.3,58.8 594.9,58.8 
		594.9,47.7 570.1,47.7 	"/>
</g>
</svg>
