<svg id="圖層_1" data-name="圖層 1" xmlns="http://www.w3.org/2000/svg" viewBox="0 0 45 20"><defs><style>.cls-1{fill:#333;}</style></defs><title>eraser-shock</title><path class="cls-1" d="M22.5,2.5c-1.43,0-2.58,2.31-2.58,5.17v3.1c0,2.85,1.15,5.16,2.58,5.16s2.58-2.31,2.58-5.16V7.67C25.08,4.81,23.93,2.5,22.5,2.5Z"/><path class="cls-1" d="M41.22,7.57c-1-1-3.47-.19-5.48,1.82l-2.2,2.2c-2,2-2.83,4.47-1.82,5.48s3.46.19,5.48-1.83l2.19-2.19C41.41,11,42.23,8.58,41.22,7.57Z"/><path class="cls-1" d="M9.26,9.39c-2-2-4.47-2.83-5.48-1.82S3.59,11,5.61,13.05L7.8,15.24c2,2,4.47,2.84,5.48,1.83s.19-3.46-1.82-5.48Z"/></svg>