<svg id="圖層_1" data-name="圖層 1" xmlns="http://www.w3.org/2000/svg" viewBox="0 0 45 35"><defs><style>.cls-1{fill:#333;}</style></defs><title>shock-333-40deg_L</title><path class="cls-1" d="M26.7,12.1c-1.1-.9-3.5.1-5.3,2.3l-2,2.4c-1.8,2.2-2.4,4.7-1.3,5.6s3.5-.1,5.3-2.3l2-2.4C27.2,15.5,27.8,13,26.7,12.1Z"/><path class="cls-1" d="M37.8,28c-.1-1.4-2.5-2.4-5.4-2.1l-3.1.3c-2.8.2-5,1.6-4.9,3s2.5,2.4,5.4,2.1l3.1-.3C35.7,30.7,37.9,29.4,37.8,28Z"/><path class="cls-1" d="M12.2,8.8c-.2-2.8-1.5-5-3-4.9S6.8,6.4,7,9.3l.3,3.1c.2,2.8,1.6,5,3,4.9s2.4-2.5,2.1-5.4Z"/></svg>