<?xml version="1.0" encoding="utf-8"?>
<!-- Generator: Adobe Illustrator 25.0.0, SVG Export Plug-In . SVG Version: 6.00 Build 0)  -->
<svg version="1.1" id="圖層_1" xmlns="http://www.w3.org/2000/svg" xmlns:xlink="http://www.w3.org/1999/xlink" x="0px" y="0px"
	 viewBox="0 0 200 140" style="enable-background:new 0 0 200 140;" xml:space="preserve">
<style type="text/css">
	.st0{fill:#333333;}
	.st1{fill:#FFCC33;}
</style>
<g>
	<path class="st0" d="M46.7,140C72.4,140,95,122.4,95,92.1c0-29.2-19-42.6-41.7-42.6c-5,0-9,0.7-13.8,2.7l2-22.8h47.6v-27H14
		l-3.4,66.9l14,9.2c7.9-5.1,11.5-6.5,18.9-6.5C55,72,63,79.2,63,92.8c0,14-8.1,21-21,21c-10.6,0-19.9-5.6-27.5-12.9L0,121.3
		C10.6,131.8,25.3,140,46.7,140z"/>
	<path class="st0" d="M152.8,140c28.2,0,47.2-24.3,47.2-70.7C200,23,181,0,152.8,0s-47.4,22.8-47.4,69.3
		C105.4,115.7,124.6,140,152.8,140z M152.8,115c-9.5,0-17.2-8.7-17.2-45.7c0-36.8,7.7-44.6,17.2-44.6c9.5,0,17.1,7.8,17.1,44.6
		C169.8,106.3,162.3,115,152.8,115z"/>
</g>
</svg>
