<?xml version="1.0" encoding="utf-8"?>
<!-- Generator: Adobe Illustrator 25.0.0, SVG Export Plug-In . SVG Version: 6.00 Build 0)  -->
<svg version="1.1" id="圖層_1" xmlns="http://www.w3.org/2000/svg" xmlns:xlink="http://www.w3.org/1999/xlink" x="0px" y="0px"
	 viewBox="0 0 175.2 37.1" style="enable-background:new 0 0 175.2 37.1;" xml:space="preserve">
<style type="text/css">
	.st0{fill:#333333;}
	.st1{fill:#FFCC33;}
	.st2{fill:#FFFFFF;}
</style>
<path class="st1" d="M0,0h175.2l-16.7,18.5l16.7,18.5H0l16.7-18.5L0,0z"/>
<path class="st2" d="M55,10.3v3h-4.7l0,13.9h-3.6l0-13.9H42v-3H55z M57.5,10.3H61v16.9h-3.5V10.3z M73.5,18.1
	c0.6,0.2,1.1,0.5,1.6,0.9c0.5,0.4,0.9,1,1.1,1.6c0.3,0.6,0.4,1.3,0.4,1.9c0,0.8-0.2,1.5-0.6,2.2c-0.4,0.7-1,1.3-1.8,1.7
	c-0.8,0.4-1.6,0.7-2.6,0.7h-7.5V10.3h6.2c0.9,0,1.7,0.2,2.5,0.6c0.8,0.4,1.4,0.9,1.8,1.5c0.5,0.6,0.7,1.3,0.7,2
	c0,0.9-0.2,1.7-0.6,2.3c-0.4,0.6-0.9,1.1-1.4,1.3V18.1z M67.8,17.1h1.7c0.5,0,1-0.1,1.4-0.2c0.4-0.2,0.7-0.4,0.9-0.7
	c0.2-0.3,0.3-0.6,0.3-1c0-0.6-0.2-1-0.7-1.4c-0.4-0.4-1-0.5-1.7-0.5h-1.9V17.1z M70.3,24.2c1,0,1.8-0.2,2.2-0.5
	c0.5-0.3,0.7-0.8,0.7-1.6c0-0.7-0.3-1.2-0.8-1.5c-0.5-0.3-1.4-0.5-2.6-0.5h-2v4.1H70.3z M91.4,27.2l-1.5-3.5h-6.3l-1.5,3.5h-3.8
	l7.6-16.9h1.7l7.7,16.9H91.4z M84.8,20.8h3.9l-1.9-4.5h-0.1L84.8,20.8z M112.1,10.3h3.5v16.9h-3.5V15.4H112l-5.4,6.5h-0.2l-5.4-6.5
	h-0.1v11.8h-3.5V10.3h3.5l5.6,6.9L112.1,10.3z M122.5,24.2h7.4v3h-11V10.3l10.7,0v3h-7.1v3.8h6.4v3h-6.4V24.2z"/>
</svg>
