<?xml version="1.0" encoding="utf-8"?>
<!-- Generator: Adobe Illustrator 25.0.0, SVG Export Plug-In . SVG Version: 6.00 Build 0)  -->
<svg version="1.1" id="圖層_1" xmlns="http://www.w3.org/2000/svg" xmlns:xlink="http://www.w3.org/1999/xlink" x="0px" y="0px"
	 viewBox="0 0 204 30" style="enable-background:new 0 0 204 30;" xml:space="preserve">
<style type="text/css">
	.st0{fill:#333333;}
	.st1{fill:#FFCC33;}
</style>
<g>
	<path class="st0" d="M44.2,18.2h8v-3.1h-8v-4.7h9V7.3h-9V2.5h-3.3v4.8h-4.1c0.5-1.2,0.9-2.5,1.3-3.7l-3.3-0.7
		c-1,3.7-2.7,7.3-4.8,9.6c0.8,0.5,2.2,1.4,2.9,1.9c0.9-1.1,1.7-2.4,2.5-3.9h5.6v4.7h-7.3v3.1h7.3v5.4H30.5v3.1h24v-3.1H44.2V18.2z"
		/>
	<rect x="3.1" y="14.3" class="st0" width="6.7" height="2.4"/>
	<path class="st0" d="M184.6,9.1v1.5h9.4V9c2,1.2,4.1,2.2,6,2.9c0.5-0.9,1.2-2.1,2-2.9c-4.1-1.1-8.2-3.4-11.2-6.5h-3.3
		c-2.1,2.6-6.3,5.3-10.6,6.7c0.6,0.7,1.4,2,1.8,2.8C180.7,11.2,182.8,10.2,184.6,9.1z M189.3,5.3c0.9,1,2,1.9,3.4,2.8h-6.6
		C187.4,7.2,188.5,6.2,189.3,5.3z"/>
	<path class="st0" d="M15.2,21.8c1-2.6,1.6-5.9,1.9-9.8l-1.6-0.3L15,11.7h-0.5H14c0.9-2.6,1.8-5.3,2.4-7.4l-1.9-0.4L14,4h-0.3h-3.2
		v2.8H13c-0.8,2.4-1.8,5.4-2.7,7.9l2.6,0.5c0.1-0.3,0.2-0.6,0.3-0.9h1.2c-0.2,1.6-0.5,3.1-0.9,4.5c-0.3-0.8-0.6-1.7-0.8-2.8
		l-2.4,0.7c0.5,2.2,1.1,4,1.8,5.4c-0.6,1.2-1.4,2.1-2.2,2.8V18H5.4h-1H3v9.1h2.4V26h4.4v-0.6c0.6,0.6,1.2,1.5,1.4,2.1
		c1-0.8,1.8-1.8,2.6-3c1.9,1.9,4.3,2.4,7.4,2.4h5.2c0.1-0.8,0.5-2.2,1-2.9c-1.2,0-4.9,0-5.9,0C18.9,24.1,16.8,23.6,15.2,21.8z
		 M7.4,23.5H5.4v-3h1.9V23.5z"/>
	<path class="st0" d="M197.8,13l-2.2-1.3l-0.5,0.1h-0.7h-13.8v2.7h12.8c-0.7,1.2-1.5,2.5-2.3,3.4c0.7,0.3,1.8,1,2.5,1.5
		C195,17.7,196.8,15,197.8,13z"/>
	<rect x="2" y="6.9" class="st0" width="8.4" height="2.5"/>
	<rect x="3.2" y="3.3" class="st0" width="6.6" height="2.4"/>
	<rect x="3.1" y="10.7" class="st0" width="6.7" height="2.4"/>
	<path class="st0" d="M185.3,17.8c1.9,0.9,4,2.4,5,3.6l2.2-2.3c-1.1-1.2-3.3-2.6-5.2-3.4L185.3,17.8z"/>
	<path class="st0" d="M21.5,6.6v13.4h-1.1V9.4h-2.6v10.5h-1.2v2.6h10.4v-2.6h-2.8v-5.7h2.5v-2.6h-2.5V5.9c1-0.3,2-0.6,2.8-0.9
		l-2.1-2.3c-2,0.9-5.3,1.7-8.2,2.2c0.3,0.6,0.7,1.7,0.9,2.3C18.8,7,20.1,6.8,21.5,6.6z"/>
	<path class="st0" d="M176.9,24.8l2.7,1.8c2-1.6,3-4.3,3.7-6.8l-2.9-0.9C179.8,21.1,178.6,23.4,176.9,24.8z"/>
	<path class="st0" d="M169.9,24.4c-0.7,0-3.2,0-3.7,0c-1.3,0-1.5-0.2-1.5-1.3v-8h4.8v1.5h3.2V4h-11.8v3h8.6V12h-4.8H163h-1.6v4.2
		c-0.6-1.6-1.8-3.7-2.8-5.4l-2.4,1.1c0.3,0.6,0.7,1.2,1,1.8c-1.1,0.1-2.2,0.1-3.2,0.2c1.9-2.1,3.9-4.8,5.5-7l-2.7-1.3
		c-0.8,1.4-1.8,3-2.9,4.6c-0.3-0.4-0.6-0.7-1-1.1c1.1-1.5,2.3-3.5,3.4-5.3l-2.9-1.2c-0.6,1.4-1.5,3.3-2.3,4.8
		c-0.2-0.2-0.4-0.3-0.6-0.5l-1.5,2.2c1.1,1,2.4,2.3,3.3,3.4c-0.5,0.6-0.9,1.1-1.4,1.7c-0.7,0-1.4,0.1-1.9,0.1l0.3,2.8
		c1.3-0.1,2.8-0.1,4.3-0.2v10.8h3v-11c0.6,0,1.3-0.1,1.9-0.1c0.2,0.5,0.4,1.1,0.5,1.5l2.4-1.2v6.3c0,3.4,1,4.3,4.3,4.3
		c0.7,0,3.7,0,4.4,0c3,0,3.9-1.4,4.3-5.9c-0.9-0.2-2.2-0.7-3-1.3C171.3,23.7,171.1,24.4,169.9,24.4z"/>
	<path class="st0" d="M148.6,24.4c0.7,0.3,2,0.9,2.6,1.3c0.9-1.7,1.6-4.4,1.9-7l-2.8-0.5C150,20.4,149.5,22.8,148.6,24.4z"/>
	<path class="st0" d="M156.8,18.9c0.7,1.6,1.6,3.9,1.9,5.2l2.6-1c-0.4-1.4-1.2-3.5-2.1-5.1L156.8,18.9z"/>
	<path class="st0" d="M191.4,24.3c-0.6,0-2.7,0-3.1,0c-1.1,0-1.2-0.1-1.2-0.9v-4.3h-3.2v4.3c0,2.8,0.8,3.7,4,3.7c0.6,0,3.2,0,3.8,0
		c2.6,0,3.4-0.9,3.8-4.5c-0.9-0.2-2.2-0.7-2.8-1.1C192.5,23.9,192.4,24.3,191.4,24.3z"/>
	<path class="st0" d="M68.5,13.6c-0.8-0.6-1.8-0.9-2.9-1c-0.5,0-1,0-1.5,0.2c-0.5,0.2-0.8,0.4-1.1,0.6l0.5-3.9l6.6,0l0-3.2l-9.9,0
		L59,17.1c0.5,0,1.2,0,2.3,0.1c0.7-0.8,1.6-1.3,2.7-1.3c0.2,0,0.3,0,0.4,0c0.6,0,1,0.2,1.5,0.5c0.4,0.3,0.8,0.6,1,1.1
		c0.2,0.5,0.4,1,0.4,1.6c0,0.6-0.1,1.1-0.4,1.6c-0.3,0.5-0.6,0.8-1.1,1.1c-0.5,0.3-1,0.4-1.6,0.4c-0.6,0-1.2-0.1-1.9-0.4
		c-0.7-0.3-1.2-0.7-1.6-1.1l-1.7,2.6c0.4,0.4,0.8,0.8,1.2,1c0.4,0.3,0.9,0.5,1.7,0.8c0.8,0.3,1.7,0.4,2.8,0.4c1.3,0,2.4-0.3,3.4-0.8
		c1-0.5,1.8-1.3,2.3-2.2c0.5-1,0.8-2.1,0.8-3.3c0-1.2-0.2-2.3-0.7-3.3C69.9,15,69.3,14.2,68.5,13.6z"/>
	<path class="st0" d="M196.9,18.4l-2.6,1.6c1.9,1.9,3.9,4.5,4.6,6.4l2.9-1.7C201,22.7,198.9,20.2,196.9,18.4z"/>
	<polygon class="st0" points="99.8,13 99.8,15.5 112.1,15.5 112.1,13 107.4,13 107.4,11.3 111.6,11.3 111.6,8.9 107.4,8.9 
		107.4,7.1 104.3,7.1 104.3,8.9 100.4,8.9 100.4,11.3 104.3,11.3 104.3,13 	"/>
	<path class="st0" d="M82.8,5.9c-2.4,0-4.2,0.8-5.4,2.5c-1.2,1.7-1.9,4.1-1.9,7.3c0,3.2,0.6,5.6,1.8,7.3c1.2,1.7,3,2.5,5.3,2.5
		c2.3,0,4.1-0.8,5.4-2.5c1.2-1.7,1.8-4.1,1.8-7.3c0-3.2-0.6-5.6-1.8-7.3C86.8,6.7,85,5.9,82.8,5.9z M84.8,20.5
		c-0.5,1.1-1.2,1.7-2.1,1.7c-1,0-1.7-0.5-2.2-1.6c-0.5-1.1-0.8-2.7-0.8-4.8c0-2.1,0.3-3.7,0.8-4.8c0.5-1.1,1.2-1.6,2.1-1.6
		c1,0,1.7,0.5,2.2,1.6c0.5,1.1,0.8,2.7,0.8,4.7C85.6,17.7,85.3,19.4,84.8,20.5z"/>
	<path class="st0" d="M111.1,24.3V17h-7.4h-1.3h-1.6v8.7h2.9v-1.5H111.1z M108.1,19.4v2.4h-4.5v-2.4H108.1z"/>
	<path class="st0" d="M113.2,3.8H98.9h-1.2h-1.9V13c0,3.9-0.2,9-2.8,12.5c0.7,0.4,2.1,1.4,2.6,2c2.9-3.9,3.4-10.2,3.4-14.6V6.7h14.3
		v17.2c0,0.4-0.2,0.6-0.6,0.6c-0.5,0-2,0.1-3.4,0c0.4,0.8,0.9,2.1,1,3c2.3,0,3.8-0.1,4.9-0.5c1-0.5,1.4-1.3,1.4-3V3.8h-2H113.2z"/>
	<path class="st0" d="M136.7,14.7h7.1v-3h-7.1V8.5h7.7V5.4h-15.1c0.3-0.7,0.6-1.5,0.9-2.2l-3.2-0.8c-1.1,3.5-3.2,6.9-5.6,8.9
		c0.8,0.5,2.1,1.5,2.7,2.1c1.3-1.3,2.5-3,3.6-4.9h5.7v3.2h-7.8v7h-4.2v3.1h12v5.7h3.3v-5.7h9.1v-3.1h-9.1V14.7z M128.8,18.7v-4h4.6
		v4H128.8z"/>
</g>
</svg>
