<?xml version="1.0" encoding="utf-8"?>
<!-- Generator: Adobe Illustrator 25.0.0, SVG Export Plug-In . SVG Version: 6.00 Build 0)  -->
<svg version="1.1" id="圖層_1" xmlns="http://www.w3.org/2000/svg" xmlns:xlink="http://www.w3.org/1999/xlink" x="0px" y="0px"
	 viewBox="0 0 204 18" style="enable-background:new 0 0 204 18;" xml:space="preserve">
<style type="text/css">
	.st0{fill:#333333;}
	.st1{fill:#FFCC33;}
</style>
<path class="st0" d="M2,8.9h18V8.1H2V8.9z M32,15.6c-0.8,0-1.7-0.1-2.6-0.4c-0.9-0.3-1.6-0.7-2.2-1.1l0.6-1.2
	c0.4,0.3,0.9,0.5,1.4,0.8c0.5,0.2,1,0.4,1.5,0.5c0.5,0.1,0.9,0.1,1.3,0.1c0.6,0,1.2-0.1,1.6-0.2c0.5-0.2,0.8-0.4,1.1-0.7
	c0.2-0.3,0.4-0.7,0.4-1.1c0-0.4-0.1-0.8-0.4-1.1c-0.2-0.3-0.6-0.6-1.1-0.8c-0.5-0.3-1.1-0.5-1.9-0.9c-0.8-0.3-1.4-0.6-2-1
	c-0.5-0.4-0.9-0.8-1.2-1.2c-0.3-0.5-0.4-1-0.4-1.7c0-0.6,0.2-1.2,0.5-1.7c0.3-0.5,0.8-0.8,1.4-1.1c0.6-0.3,1.3-0.4,2.1-0.4
	c0.6,0,1.1,0.1,1.7,0.2c0.6,0.2,1.2,0.4,1.7,0.7v1.3c-0.5-0.3-1-0.5-1.6-0.7c-0.5-0.2-1.1-0.2-1.7-0.2c-0.9,0-1.5,0.2-2,0.5
	c-0.5,0.3-0.7,0.8-0.7,1.4c0,0.6,0.2,1,0.7,1.4c0.5,0.4,1.2,0.8,2.2,1.2c1,0.4,1.8,0.8,2.4,1.2c0.6,0.4,1,0.8,1.3,1.2
	c0.3,0.4,0.4,0.9,0.4,1.5c0,0.7-0.2,1.2-0.6,1.8c-0.4,0.5-0.9,0.9-1.6,1.2C33.7,15.4,32.9,15.6,32,15.6z M45,2.7h1.5v12.7H45V2.7z
	 M64.3,2.7h1.5v12.7h-1.6L57.2,5.2h-0.1v10.1h-1.5l0-12.7h1.5l7.1,10.1h0.1V2.7z M80.6,14.2c0.8,0,1.5-0.2,2.2-0.6
	c0.7-0.4,1.3-1,1.7-1.8l1,0.8c-0.5,1-1.2,1.7-2.1,2.2c-0.9,0.5-1.8,0.8-2.9,0.8c-1.2,0-2.2-0.3-3.2-0.8c-0.9-0.6-1.7-1.3-2.2-2.3
	c-0.5-1-0.8-2.1-0.8-3.4c0-1.3,0.3-2.4,0.8-3.4c0.5-1,1.3-1.8,2.2-2.3c0.9-0.6,2-0.8,3.2-0.8c1.1,0,2,0.3,2.9,0.8
	c0.9,0.5,1.6,1.3,2.1,2.2l-1,0.8c-0.5-0.8-1-1.4-1.7-1.8c-0.7-0.4-1.4-0.6-2.2-0.6c-0.9,0-1.7,0.2-2.4,0.7c-0.7,0.4-1.2,1.1-1.7,1.9
	C76.2,7.1,75.9,8,75.9,9c0,1,0.2,1.9,0.6,2.7c0.4,0.8,1,1.4,1.7,1.9C78.9,14,79.7,14.2,80.6,14.2z M95.7,14h6.4v1.3h-7.9V2.7l7.7,0
	V4h-6.1v4.2h5.6v1.3h-5.6V14z M125,2.7v12.7h-1.5V4h-1.1V2.7H125z M139,2.4c0.8,0,1.5,0.2,2.1,0.5c0.6,0.3,1.1,0.8,1.5,1.3
	c0.4,0.6,0.5,1.2,0.5,1.9c0,0.1,0,0.3,0,0.4c-0.1,0.6-0.2,1.2-0.6,1.8l0,0l-3.5,7h-1.6l2.7-5.4c-0.4,0.2-0.8,0.2-1.3,0.2
	c-0.8,0-1.4-0.2-2-0.5c-0.6-0.3-1.1-0.8-1.4-1.3c-0.3-0.6-0.5-1.2-0.5-1.9c0-0.8,0.2-1.4,0.5-2.1c0.4-0.6,0.9-1.1,1.5-1.5
	C137.5,2.6,138.2,2.4,139,2.4z M136.4,6.4c0,0.5,0.1,0.9,0.3,1.3c0.2,0.4,0.5,0.7,0.9,0.9c0.4,0.2,0.8,0.3,1.3,0.3
	c0.4,0,0.8-0.1,1.1-0.2c0.3-0.2,0.6-0.4,0.9-0.7c0.3-0.3,0.4-0.7,0.5-1.1l0.1-0.5c0-0.1,0-0.2,0-0.3c0-0.5-0.1-0.9-0.3-1.2
	c-0.2-0.4-0.5-0.7-0.9-0.9c-0.4-0.2-0.8-0.3-1.3-0.3c-0.5,0-0.9,0.1-1.3,0.4c-0.4,0.2-0.7,0.6-0.9,1C136.6,5.5,136.4,6,136.4,6.4z
	 M155.6,7.8c0.8,0,1.5,0.2,2.1,0.5c0.6,0.3,1.1,0.8,1.4,1.3c0.3,0.6,0.5,1.2,0.5,1.9c0,0.8-0.2,1.4-0.5,2.1s-0.9,1.1-1.5,1.5
	c-0.6,0.4-1.3,0.5-2.1,0.5c-0.8,0-1.5-0.2-2.1-0.5c-0.6-0.3-1.1-0.8-1.5-1.3c-0.3-0.6-0.5-1.2-0.5-1.9c0-0.2,0-0.3,0-0.4
	c0.1-0.6,0.2-1.2,0.6-1.8l0,0l3.5-7h1.6L154.4,8C154.8,7.9,155.2,7.8,155.6,7.8z M155.4,14.2c0.5,0,0.9-0.1,1.3-0.4
	c0.4-0.2,0.7-0.6,0.9-1c0.2-0.4,0.4-0.9,0.4-1.3c0-0.5-0.1-0.9-0.3-1.3c-0.2-0.4-0.5-0.7-0.9-0.9C156.4,9.1,156,9,155.5,9
	c-0.6,0-1.1,0.2-1.6,0.5c-0.5,0.4-0.8,0.8-0.9,1.5c0,0.1,0,0.3-0.1,0.5c0,0.1,0,0.2,0,0.3c0,0.5,0.1,0.9,0.3,1.2
	c0.2,0.4,0.5,0.7,0.9,0.9C154.5,14.1,155,14.2,155.4,14.2z M172.1,2.4c0.8,0,1.5,0.2,2.1,0.5c0.6,0.3,1.1,0.8,1.5,1.3
	c0.4,0.6,0.5,1.2,0.5,1.9c0,0.1,0,0.3,0,0.4c-0.1,0.6-0.2,1.2-0.6,1.8l0,0l-3.5,7h-1.6l2.7-5.4c-0.4,0.2-0.8,0.2-1.3,0.2
	c-0.8,0-1.4-0.2-2-0.5c-0.6-0.3-1.1-0.8-1.4-1.3S168,7.2,168,6.4c0-0.8,0.2-1.4,0.5-2.1c0.4-0.6,0.9-1.1,1.5-1.5
	C170.6,2.6,171.3,2.4,172.1,2.4z M169.5,6.4c0,0.5,0.1,0.9,0.3,1.3c0.2,0.4,0.5,0.7,0.9,0.9c0.4,0.2,0.8,0.3,1.3,0.3
	c0.4,0,0.8-0.1,1.1-0.2c0.3-0.2,0.6-0.4,0.9-0.7c0.3-0.3,0.4-0.7,0.5-1.1l0.1-0.5c0-0.1,0-0.2,0-0.3c0-0.5-0.1-0.9-0.3-1.2
	c-0.2-0.4-0.5-0.7-0.9-0.9c-0.4-0.2-0.8-0.3-1.3-0.3c-0.5,0-0.9,0.1-1.3,0.4c-0.4,0.2-0.7,0.6-0.9,1C169.7,5.5,169.5,6,169.5,6.4z
	 M184,8.9h18V8.1h-18V8.9z"/>
</svg>
