<svg id="圖層_1" data-name="圖層 1" xmlns="http://www.w3.org/2000/svg" viewBox="0 0 100 100"><defs><style>.cls-1{fill:#00adbb;}</style></defs><path class="cls-1" d="M50,0C63.59,0,65.28.05,70.61.3A36.85,36.85,0,0,1,82.75,2.63a24.3,24.3,0,0,1,8.86,5.76,24.47,24.47,0,0,1,5.76,8.86A36.74,36.74,0,0,1,99.7,29.39c.23,5.33.3,7,.3,20.61s0,15.28-.3,20.61a36.85,36.85,0,0,1-2.33,12.14A25.47,25.47,0,0,1,82.75,97.37,36.79,36.79,0,0,1,70.61,99.7c-5.33.23-7,.3-20.61.3s-15.28,0-20.61-.3a36.85,36.85,0,0,1-12.14-2.33,24.47,24.47,0,0,1-8.86-5.76,24.47,24.47,0,0,1-5.76-8.86A36.79,36.79,0,0,1,.3,70.61C.07,65.28,0,63.59,0,50S.05,34.72.3,29.39A36.79,36.79,0,0,1,2.63,17.25,24.34,24.34,0,0,1,8.39,8.39a24.47,24.47,0,0,1,8.86-5.76A36.79,36.79,0,0,1,29.39.3C34.72.06,36.41,0,50,0Zm0,25a25,25,0,1,0,17.68,7.32A25,25,0,0,0,50,25Zm32.5-1.25a6.25,6.25,0,1,0-1.83,4.42A6.25,6.25,0,0,0,82.5,23.75ZM50,35a15,15,0,1,1-10.61,4.39A15,15,0,0,1,50,35Z"/></svg>