<svg xmlns="http://www.w3.org/2000/svg" viewBox="0 0 100 100"><path d="M100,19a41.29,41.29,0,0,1-11.79,3.23,20.58,20.58,0,0,0,9-11.36,40.63,40.63,0,0,1-13,5,20.52,20.52,0,0,0-35,18.72,58.12,58.12,0,0,1-23.42-6.23A58.12,58.12,0,0,1,7,13.13a20.53,20.53,0,0,0,6.35,27.39A20.33,20.33,0,0,1,4,38v.26A20.52,20.52,0,0,0,20.48,58.33a20.64,20.64,0,0,1-9.28.35A20.53,20.53,0,0,0,30.37,72.93,40.87,40.87,0,0,1,16,80.2,41.11,41.11,0,0,1,0,81.43a58.07,58.07,0,0,0,31.45,9.22c37.74,0,58.38-31.26,58.38-58.38,0-.88,0-1.77-.07-2.65A41.53,41.53,0,0,0,100,19Z"/></svg>