<svg id="圖層_1" data-name="圖層 1" xmlns="http://www.w3.org/2000/svg" viewBox="0 0 100 100"><defs><style>.cls-1{fill:#333;}</style></defs><title>icon_search</title><path class="cls-1" d="M89.5,95,56.62,62.07a27.46,27.46,0,0,1-8.75,5.07A30.85,30.85,0,0,1,37.25,69a31.16,31.16,0,0,1-22.88-9.38A30.86,30.86,0,0,1,5,37a30.88,30.88,0,0,1,9.37-22.63A31,31,0,0,1,37.13,5a30.62,30.62,0,0,1,22.56,9.37A30.94,30.94,0,0,1,69,37a31.07,31.07,0,0,1-1.75,10.37A31.86,31.86,0,0,1,62,56.7L95,89.45ZM37.12,61.45a23.4,23.4,0,0,0,17.25-7.19A23.7,23.7,0,0,0,61.5,37a23.73,23.73,0,0,0-7.12-17.31,23.4,23.4,0,0,0-17.25-7.19,23.74,23.74,0,0,0-17.44,7.19A23.6,23.6,0,0,0,12.5,37a23.6,23.6,0,0,0,7.19,17.31A23.74,23.74,0,0,0,37.12,61.45Z"/></svg>