<svg id="圖層_3" data-name="圖層 3" xmlns="http://www.w3.org/2000/svg" viewBox="0 0 176.4 45"><defs><style>.cls-1{fill:#fff;}</style></defs><title>KUMA_logo_font_fff</title><polygon class="cls-1" points="36.72 0 22.92 0 11.08 14.67 11.08 0 0 0 0 43.95 11.08 43.95 11.08 26.2 12.27 26.2 25.51 43.95 38.99 43.95 20.53 19.77 36.72 0"/><path class="cls-1" d="M68.1,28.64c0,3.18-.61,5.59-1.81,7.15a5.94,5.94,0,0,1-5,2.18,5.76,5.76,0,0,1-5-2.25c-1.21-1.62-1.82-4.09-1.82-7.36V3.5H43.4V28.56c0,6.35,1.54,11.3,4.57,14.72s7.55,5.22,13.29,5.22,10.23-1.78,13.33-5.3,4.59-8.48,4.59-14.92V3.5H68.1Z" transform="translate(-2.8 -3.5)"/><polygon class="cls-1" points="106.37 15.78 94.13 0 83.8 0 83.8 43.95 94.87 43.95 94.87 17.68 105.39 31.01 107.34 31.01 117.93 17.66 117.93 43.95 129.01 43.95 129.01 0 118.68 0 106.37 15.78"/><polygon class="cls-1" points="154.41 19.59 164.17 43.95 176.4 43.95 157.3 0 151.38 0 132.71 43.95 144.65 43.95 154.41 19.59"/></svg>