<svg id="圖層_3" data-name="圖層 3" xmlns="http://www.w3.org/2000/svg" viewBox="0 0 182 50"><defs><style>.cls-1{fill:#333;}</style></defs><title>KUMA_logo</title><polygon class="cls-1" points="39.52 3.5 25.72 3.5 13.88 18.17 13.88 3.5 2.8 3.5 2.8 47.45 13.88 47.45 13.88 29.7 15.07 29.7 28.31 47.45 41.79 47.45 23.33 23.27 39.52 3.5"/><path class="cls-1" d="M68.1,28.64c0,3.18-.61,5.59-1.81,7.15a5.94,5.94,0,0,1-5,2.18,5.75,5.75,0,0,1-5-2.25c-1.21-1.62-1.82-4.09-1.82-7.36V3.5H43.4V28.56c0,6.35,1.54,11.3,4.57,14.72s7.55,5.22,13.29,5.22,10.23-1.78,13.33-5.3,4.59-8.48,4.59-14.92V3.5H68.1Z"/><polygon class="cls-1" points="109.17 19.28 96.93 3.5 86.6 3.5 86.6 47.45 97.67 47.45 97.67 21.18 108.19 34.51 110.14 34.51 120.73 21.16 120.73 47.45 131.81 47.45 131.81 3.5 121.48 3.5 109.17 19.28"/><polygon class="cls-1" points="157.21 23.09 166.97 47.45 179.2 47.45 160.1 3.5 154.18 3.5 135.51 47.45 147.45 47.45 157.21 23.09"/></svg>