<svg id="圖層_1" data-name="圖層 1" xmlns="http://www.w3.org/2000/svg" viewBox="0 0 357 72"><defs><style>.cls-1{fill:#fff;}</style></defs><title>Tibame_logo</title><path class="cls-1" d="M5.3,67h62V5H5.3ZM64.5,7.8V64.2H8.1V7.8Z"/><path class="cls-1" d="M27.15,57.47a5.84,5.84,0,0,0,1.73.28H43.71a6,6,0,0,0,1.74-.28c1.44-.52,1.89-2.64-.89-3.17C43.21,54,42.91,53.1,42.9,52V47.92c0-7.85,0-17.19,0-25v-7H29.7v7c0,7.85,0,17.19,0,25,0,1.36,0,2.71,0,4.07,0,1.11-.31,2-1.65,2.31C25.25,54.83,25.71,57,27.15,57.47Z"/><path class="cls-1" d="M51.13,25.13C52,29,52.43,29.87,53.52,30a1.66,1.66,0,0,0,1.74-1.65c.05-.86,0-8.28,0-12.31a.2.2,0,0,0-.14-.14H45.87v3.59C49.23,19.63,50.29,21.3,51.13,25.13Z"/><path class="cls-1" d="M19.07,30c1.1-.08,1.55-1,2.39-4.82s1.91-5.5,5.27-5.7V15.84H17.44a.2.2,0,0,0-.14.14c0,4,0,11.45,0,12.31A1.65,1.65,0,0,0,19.07,30Z"/><polygon class="cls-1" points="98.41 16.99 114.11 16.99 114.11 61.35 119.44 61.35 119.44 16.99 135.21 16.99 135.21 12.52 98.41 12.52 98.41 16.99"/><path class="cls-1" d="M152.17,11a3.66,3.66,0,1,0,3.93,3.71A3.7,3.7,0,0,0,152.17,11Z"/><rect class="cls-1" x="149.54" y="25.34" width="5.12" height="36.01"/><path class="cls-1" d="M186.85,24.42c-3.65,0-7.59,1.59-11.73,4.73l.16-5.47V8.2h-5.12V61.35h4.3l.43-3.15c3.38,2.52,7.26,4,10.52,4,8.29,0,16.68-6.67,16.68-19.41C202.09,31.12,196.54,24.42,186.85,24.42Zm-11.57,9.73c4.09-3.53,7.63-5.25,10.81-5.25,7,0,10.61,4.67,10.61,13.89,0,8.93-4.68,14.93-11.63,14.93a16.45,16.45,0,0,1-9.79-3.95Z"/><path class="cls-1" d="M230.3,24.42a26.38,26.38,0,0,0-14.16,4.67l-.48.31,2.42,3.74.49-.36a19.74,19.74,0,0,1,11.19-3.88,7.34,7.34,0,0,1,5.5,2c1.54,1.58,2.31,4.09,2.3,7.46C221,40.23,214.24,44.2,214.24,52c0,6.28,4.29,10.19,11.2,10.19,3.92,0,8-1.6,12.4-4.89l.38,4h4.45V38.67C242.67,29.35,238.39,24.42,230.3,24.42Zm7.25,17.89V52.72c-4.41,3.64-7.7,5.13-11.29,5.13-2.58,0-6.9-.78-6.9-6S224.64,43.79,237.55,42.31Z"/><path class="cls-1" d="M295.7,24.42c-3.8,0-7.55,2-12.1,6.58-1.66-4.37-5.13-6.58-10.32-6.58-3.54,0-7.49,2-11.19,5.63l-.43-4.71h-4.38v36h5.12V34.9c3.65-3.94,7-5.93,10-5.93,5.06,0,7.31,3.09,7.31,10V61.35h5.12V34.9c3.82-4,7-5.93,10-5.93,5.06,0,7.31,3.09,7.31,10V61.35h5.12V38.47C307.24,29.15,303.36,24.42,295.7,24.42Z"/><path class="cls-1" d="M337,24.42c-8.06,0-16.62,6.65-16.62,19,0,11.08,7.23,18.82,17.58,18.82a21.73,21.73,0,0,0,11.95-3.49l.46-.27-2.06-3.85-.52.35a16.34,16.34,0,0,1-9.42,2.91c-7.28,0-12.36-5.32-12.78-13.31h25.81l.08-.48a18.22,18.22,0,0,0,.21-2.84C351.7,30.7,346.21,24.42,337,24.42Zm9.91,16H325.65c.88-6.83,5.51-11.54,11.43-11.54C343.27,28.84,346.75,32.93,346.92,40.38Z"/></svg>