<svg id="圖層_1" data-name="圖層 1" xmlns="http://www.w3.org/2000/svg" viewBox="0 0 347 72"><defs><style>.cls-1{fill:#333;}</style></defs><path class="cls-1" d="M5.3,67h62V5H5.3ZM64.5,7.8V64.2H8.1V7.8Z"/><path class="cls-1" d="M27.15,57.47a6,6,0,0,0,1.73.28H43.71a6,6,0,0,0,1.74-.28c1.44-.52,1.89-2.64-.89-3.17A2,2,0,0,1,42.9,52V15.92H29.7V52a2,2,0,0,1-1.65,2.31C25.25,54.83,25.71,57,27.15,57.47Z"/><path class="cls-1" d="M51.13,25.13C52,29,52.43,29.87,53.52,30a1.66,1.66,0,0,0,1.74-1.58v-.07c.05-.86,0-8.28,0-12.31a.18.18,0,0,0-.14-.14H45.87v3.59C49.23,19.63,50.29,21.3,51.13,25.13Z"/><path class="cls-1" d="M19.07,30c1.1-.08,1.55-1,2.39-4.82s1.91-5.5,5.27-5.7V15.84H17.44a.22.22,0,0,0-.14.14V28.29A1.65,1.65,0,0,0,18.89,30,1.08,1.08,0,0,0,19.07,30Z"/><polygon class="cls-1" points="88.42 16.99 104.11 16.99 104.11 61.35 109.44 61.35 109.44 16.99 125.22 16.99 125.22 12.52 88.42 12.52 88.42 16.99"/><path class="cls-1" d="M142.17,11a3.66,3.66,0,1,0,3.93,3.71A3.7,3.7,0,0,0,142.42,11Z"/><rect class="cls-1" x="139.54" y="25.34" width="5.12" height="36.01"/><path class="cls-1" d="M176.85,24.42c-3.65,0-7.59,1.59-11.73,4.73l.16-5.47V8.2h-5.12V61.35h4.3l.43-3.15c3.38,2.52,7.26,4,10.52,4,8.29,0,16.68-6.67,16.68-19.41C192.09,31.12,186.54,24.42,176.85,24.42Zm-11.57,9.73c4.09-3.53,7.63-5.25,10.81-5.25,7,0,10.61,4.67,10.61,13.89,0,8.93-4.68,14.93-11.63,14.93a16.5,16.5,0,0,1-9.79-3.95Z"/><path class="cls-1" d="M220.3,24.42a26.35,26.35,0,0,0-14.16,4.67l-.48.31,2.42,3.74.49-.36a19.78,19.78,0,0,1,11.19-3.88,7.34,7.34,0,0,1,5.5,2c1.54,1.58,2.31,4.09,2.3,7.46C211,40.23,204.24,44.2,204.24,52c0,6.28,4.29,10.19,11.2,10.19,3.92,0,8-1.6,12.4-4.89l.38,4h4.45V38.67C232.67,29.35,228.39,24.42,220.3,24.42Zm7.25,17.89V52.72c-4.41,3.64-7.7,5.13-11.29,5.13-2.58,0-6.9-.78-6.9-6S214.64,43.79,227.55,42.31Z"/><path class="cls-1" d="M285.7,24.42c-3.8,0-7.55,2-12.1,6.58-1.66-4.37-5.13-6.58-10.32-6.58-3.54,0-7.49,2-11.19,5.63l-.43-4.71h-4.38v36h5.12V34.9c3.65-3.94,7-5.93,10-5.93,5.06,0,7.31,3.09,7.31,10V61.35h5.12V34.9c3.82-4,7-5.93,10-5.93,5.06,0,7.31,3.09,7.31,10V61.35h5.12V38.47C297.24,29.15,293.36,24.42,285.7,24.42Z"/><path class="cls-1" d="M327,24.42c-8.06,0-16.62,6.65-16.62,19,0,11.08,7.23,18.82,17.58,18.82a21.72,21.72,0,0,0,12-3.49l.46-.27-2.06-3.85-.52.35a16.31,16.31,0,0,1-9.42,2.91c-7.28,0-12.36-5.32-12.78-13.31H341.4l.08-.48a16.89,16.89,0,0,0,.21-2.84C341.7,30.7,336.21,24.42,327,24.42Zm9.91,16H315.65c.88-6.83,5.51-11.54,11.43-11.54,6.19,0,9.67,4.05,9.84,11.5Z"/></svg>